<svg width="40" height="40" viewBox="0 0 40 40" fill="none" xmlns="http://www.w3.org/2000/svg">
<path d="M19.9502 0C22.6288 0.000173499 24.8884 1.78594 25.6084 4.23145C26.4214 3.95315 27.2929 3.80078 28.2002 3.80078C32.6185 3.80078 36.2002 7.3825 36.2002 11.8008C36.2002 12.6905 36.0522 13.5453 35.7842 14.3447C38.222 15.0696 40 17.3268 40 20C39.9998 22.673 38.2219 24.9294 35.7842 25.6543C36.0526 26.4542 36.2002 27.3099 36.2002 28.2002C36.2002 32.6185 32.6185 36.2002 28.2002 36.2002C27.3099 36.2002 26.4542 36.0526 25.6543 35.7842C24.9291 38.2214 22.6727 39.9989 20 39.999C17.3271 39.999 15.0699 38.2215 14.3447 35.7842C13.545 36.0524 12.6898 36.2002 11.7998 36.2002C7.38153 36.2002 3.7998 32.6185 3.7998 28.2002C3.7998 27.31 3.94649 26.4541 4.21484 25.6543C1.77773 24.9291 0.000173115 22.6726 0 20C0 17.3272 1.77758 15.07 4.21484 14.3447C3.94686 13.5454 3.7998 12.6904 3.7998 11.8008C3.7998 7.3825 7.38153 3.80078 11.7998 3.80078C12.6727 3.80078 13.5124 3.94179 14.2988 4.2002C15.0287 1.7704 17.2827 0 19.9502 0Z" fill="white"/>
<circle cx="16.8512" cy="17.5204" r="1.66667" fill="currentColor"/>
<circle cx="23.1423" cy="17.5204" r="1.66667" fill="currentColor"/>
<line x1="15.7037" y1="22.9601" x2="24.2963" y2="22.9601" stroke="currentColor" stroke-width="2.37037" stroke-linecap="round"/>
</svg>
