<svg width="100%" height="100%" viewBox="0 0 120 120" fill="none" xmlns="http://www.w3.org/2000/svg">
<g clip-path="url(#clip0_10288_5423)">
<path d="M59.8496 0C67.8835 0 74.666 5.35301 76.8281 12.6865C79.2655 11.8527 81.8797 11.4004 84.5996 11.4004C97.8544 11.4004 108.6 22.1456 108.6 35.4004C108.6 38.0693 108.163 40.636 107.358 43.0342C114.669 45.2106 120 51.9824 120 60C120 68.0175 114.669 74.7883 107.358 76.9648C108.163 79.3633 108.6 81.9303 108.6 84.5996C108.6 97.8544 97.8544 108.6 84.5996 108.6C81.9303 108.6 79.3633 108.163 76.9648 107.358C74.7883 114.669 68.0175 120 60 120C51.9824 120 45.2106 114.669 43.0342 107.358C40.636 108.163 38.0694 108.6 35.4004 108.6C22.1456 108.6 11.4004 97.8544 11.4004 84.5996C11.4004 81.9304 11.8364 79.3632 12.6406 76.9648C5.33066 74.7881 3.8891e-05 68.0172 0 60C0 51.9827 5.33052 45.2109 12.6406 43.0342C11.8366 40.6361 11.4004 38.0692 11.4004 35.4004C11.4004 22.1456 22.1456 11.4004 35.4004 11.4004C38.0186 11.4004 40.5385 11.8206 42.8975 12.5957C45.0885 5.30878 51.8489 0.000177181 59.8496 0ZM58.9199 15.5566C58.4873 39.3665 39.3338 58.6022 15.5557 59.1641V60.8369C39.3338 61.3987 58.4874 80.6354 58.9199 104.445H60.5869C61.0224 80.4708 80.4382 61.1362 104.444 60.8311V59.167C80.5521 58.7329 61.2681 39.4488 60.834 15.5566H58.9199Z" fill="currentColor"/>
<path d="M69.333 58.667C70.3148 58.667 71.1113 59.4626 71.1113 60.4443C71.1113 62.1534 70.4321 63.7924 69.2236 65.001C68.0151 66.2095 66.376 66.8886 64.667 66.8887C62.9578 66.8887 61.3179 66.2095 60.1094 65.001C60.0719 64.9635 60.0365 64.9241 60 64.8857C59.9635 64.9241 59.9281 64.9635 59.8906 65.001C58.6821 66.2095 57.043 66.8886 55.334 66.8887C53.6248 66.8887 51.9849 66.2095 50.7764 65.001C49.568 63.7924 48.8896 62.1533 48.8896 60.4443C48.8897 59.4626 49.6852 58.667 50.667 58.667C51.6488 58.667 52.4443 59.4626 52.4443 60.4443C52.4443 61.2105 52.7493 61.9455 53.291 62.4873C53.8328 63.029 54.5679 63.333 55.334 63.333C56.0999 63.3329 56.8343 63.0288 57.376 62.4873C57.9177 61.9455 58.2227 61.2105 58.2227 60.4443C58.2227 60.1991 58.2725 59.9655 58.3623 59.7529L58.4375 59.5977V59.5967C58.4922 59.496 58.5565 59.4012 58.6289 59.3135C58.7012 59.226 58.7816 59.1455 58.8691 59.0732C59.0008 58.9646 59.1482 58.8741 59.3076 58.8066C59.414 58.7616 59.5258 58.7268 59.6416 58.7031C59.7574 58.6794 59.8772 58.667 60 58.667C60.9818 58.667 61.7783 59.4626 61.7783 60.4443C61.7783 60.4485 61.7774 60.4528 61.7773 60.457C61.7807 61.2186 62.0853 61.9485 62.624 62.4873C63.1658 63.029 63.9009 63.333 64.667 63.333C65.4329 63.3329 66.1673 63.0288 66.709 62.4873C67.2507 61.9455 67.5557 61.2105 67.5557 60.4443C67.5557 59.4627 68.3514 58.6672 69.333 58.667ZM55.2773 51.667C56.6581 51.667 57.7773 52.7863 57.7773 54.167C57.7771 55.5475 56.6579 56.667 55.2773 56.667C53.8968 56.667 52.7775 55.5475 52.7773 54.167C52.7773 52.7863 53.8966 51.667 55.2773 51.667ZM64.7227 51.667C66.1034 51.667 67.2227 52.7863 67.2227 54.167C67.2225 55.5475 66.1032 56.667 64.7227 56.667C63.3421 56.667 62.2229 55.5475 62.2227 54.167C62.2227 52.7863 63.3419 51.667 64.7227 51.667Z" fill="currentColor"/>
</g>
<defs>
<clipPath id="clip0_10288_5423">
<rect width="120" height="120" fill="white"/>
</clipPath>
</defs>
</svg>
