<svg width="24" height="24" viewBox="0 0 24 24" fill="none" xmlns="http://www.w3.org/2000/svg">
<path d="M12 3C12.4818 3.00012 12.9557 3.12753 13.3721 3.37012C13.7876 3.61234 14.1316 3.96072 14.3691 4.37891L21.6338 17.0928L21.7188 17.251C21.9028 17.6246 21.9989 18.0369 21.999 18.4551C21.9991 18.9329 21.8734 19.4024 21.6348 19.8164C21.396 20.2305 21.0524 20.5751 20.6387 20.8145C20.2767 21.0238 19.8717 21.1469 19.4561 21.1748L19.2764 21.1807H4.74121V21.1797C4.26366 21.1825 3.7932 21.0602 3.37793 20.8242C2.96045 20.5868 2.61309 20.243 2.37109 19.8281C2.12922 19.4133 2.00114 18.9421 2 18.4619C1.99897 17.9815 2.12502 17.5088 2.36523 17.0928L9.62988 4.37891C9.86752 3.96068 10.2123 3.61231 10.6279 3.37012C11.0443 3.12768 11.5182 3 12 3ZM11.999 15.7168C11.4468 15.7168 10.9992 16.1646 10.999 16.7168C10.999 17.2691 11.4467 17.7168 11.999 17.7168H12.0088C12.561 17.7167 13.0088 17.269 13.0088 16.7168C13.0086 16.1647 12.5609 15.7169 12.0088 15.7168H11.999ZM11.999 8.08301C11.4469 8.08301 10.9993 8.53093 10.999 9.08301V13.083C10.999 13.6353 11.4467 14.083 11.999 14.083C12.5512 14.0829 12.999 13.6352 12.999 13.083V9.08301C12.9988 8.53101 12.551 8.08314 11.999 8.08301Z" fill="currentColor"/>
</svg>
