<svg viewBox="0 0 28 28" fill="none" xmlns="http://www.w3.org/2000/svg">
<path d="M9.56343 4.54215C9.56343 4.07805 9.18753 3.70215 8.72343 3.70215H5.48453C5.02043 3.70215 4.64453 4.07805 4.64453 4.54215V5.27155H9.56343V4.54215Z" fill="#8595AA"/>
<path d="M13.9998 10.8022C11.533 10.8022 9.52539 12.8098 9.52539 15.2773C9.52539 17.7448 11.5323 19.751 13.9998 19.751C16.4673 19.751 18.4742 17.7441 18.4742 15.2773C18.4742 12.8105 16.4673 10.8022 13.9998 10.8022ZM13.9998 17.5166C12.765 17.5166 11.7605 16.5114 11.7605 15.2766C11.7605 14.9791 11.8214 14.697 11.9271 14.4373C11.6919 14.2742 11.5274 14.0152 11.5274 13.7079C11.5274 13.2095 11.9327 12.8035 12.4311 12.8035C12.7384 12.8035 12.9974 12.9673 13.1605 13.2032C13.4202 13.0975 13.703 13.0366 13.9998 13.0366C15.2346 13.0366 16.2398 14.0418 16.2398 15.2766C16.2398 16.5114 15.2353 17.5166 13.9998 17.5166Z" fill="#333D4B"/>
<path d="M23.5894 5.27173H4.40938C2.86308 5.27173 1.60938 6.52543 1.60938 8.07173V22.1662C1.60938 23.7062 2.86938 24.9662 4.40938 24.9662H23.5894C25.1357 24.9662 26.3894 23.7125 26.3894 22.1662V8.07173C26.3894 6.52543 25.1357 5.27173 23.5894 5.27173ZM13.9994 20.8005C10.953 20.8005 8.47498 18.3225 8.47498 15.2768C8.47498 12.2311 10.953 9.75173 13.9994 9.75173C17.0458 9.75173 19.5238 12.2304 19.5238 15.2768C19.5238 18.3232 17.0458 20.8005 13.9994 20.8005ZM21.0057 10.738C20.2441 10.738 19.6267 10.1206 19.6267 9.35903C19.6267 8.59743 20.2441 7.98003 21.0057 7.98003C21.7673 7.98003 22.3847 8.59743 22.3847 9.35903C22.3847 10.1206 21.7673 10.738 21.0057 10.738Z" fill="#4E5968"/>
<path d="M13.9998 13.0361C13.703 13.0361 13.4202 13.097 13.1605 13.2027C13.262 13.349 13.3348 13.5163 13.3348 13.7074C13.3348 14.2058 12.9295 14.6111 12.4311 14.6111C12.24 14.6111 12.0727 14.5383 11.9264 14.4368C11.8207 14.6965 11.7598 14.9793 11.7598 15.2761C11.7598 16.5109 12.7643 17.5161 13.9991 17.5161C15.2339 17.5161 16.2391 16.5109 16.2391 15.2761C16.2391 14.0413 15.2353 13.0361 13.9998 13.0361Z" fill="#4E5968"/>
<path d="M13.3347 13.7074C13.3347 13.5163 13.2619 13.349 13.1604 13.2027C12.9973 12.9675 12.7383 12.803 12.431 12.803C11.9326 12.803 11.5273 13.2083 11.5273 13.7074C11.5273 14.0147 11.6918 14.2737 11.927 14.4368C12.0733 14.5383 12.2406 14.6111 12.4317 14.6111C12.9301 14.6111 13.3354 14.2058 13.3354 13.7074H13.3347Z" fill="white"/>
<path d="M14 9.75244C10.9536 9.75244 8.47559 12.2311 8.47559 15.2775C8.47559 18.3239 10.9536 20.8012 14 20.8012C17.0464 20.8012 19.5244 18.3232 19.5244 15.2775C19.5244 12.2318 17.0464 9.75244 14 9.75244ZM14 19.7505C11.5332 19.7505 9.52559 17.7436 9.52559 15.2768C9.52559 12.81 11.5325 10.8017 14 10.8017C16.4675 10.8017 18.4744 12.8093 18.4744 15.2768C18.4744 17.7443 16.4675 19.7505 14 19.7505Z" fill="#D0D6DE"/>
<path d="M21.006 7.97925C20.2444 7.97925 19.627 8.59665 19.627 9.35825C19.627 10.1198 20.2444 10.7372 21.006 10.7372C21.7676 10.7372 22.385 10.1198 22.385 9.35825C22.385 8.59665 21.7676 7.97925 21.006 7.97925Z" fill="#FFE63B"/>
</svg>
