<svg width="100%" height="100%" viewBox="0 0 16 16" fill="none" xmlns="http://www.w3.org/2000/svg">
<path d="M9.74023 2.00488C9.91028 2.02386 10.068 2.10733 10.1787 2.24023L11.6445 4H13.333C13.8634 4 14.372 4.21097 14.7471 4.58594C15.122 4.96092 15.3329 5.46977 15.333 6V12C15.3329 12.5302 15.122 13.0391 14.7471 13.4141C14.372 13.789 13.8634 14 13.333 14H2.66602C2.13579 13.9999 1.62693 13.7889 1.25195 13.4141C0.87717 13.0391 0.666113 12.5301 0.666016 12V6C0.666102 5.46977 0.877072 4.96092 1.25195 4.58594C1.62695 4.21094 2.1357 4.00009 2.66602 4H4.35449L5.82129 2.24023L5.87109 2.18652C5.99458 2.06779 6.15982 2 6.33301 2H9.66602L9.74023 2.00488ZM8 6C6.52724 6 5.33301 7.19423 5.33301 8.66699C5.33321 10.1396 6.52736 11.334 8 11.334C9.47264 11.334 10.6668 10.1396 10.667 8.66699C10.667 7.19423 9.47276 6 8 6Z" fill="currentColor"/>
</svg>
