<svg width="100%" height="100%" viewBox="0 0 32 32" fill="none" xmlns="http://www.w3.org/2000/svg">
<g clip-path="url(#clip0_10133_26599)">
<path fill-rule="evenodd" clip-rule="evenodd" d="M31.0632 21.3456L28.7608 9.68638C28.7592 9.68078 28.7576 9.67518 28.7568 9.67198L28.7528 9.64318H28.7488C28.0976 6.53838 25.3048 4.08398 22.1288 4.08398H9.87198C6.69678 4.08398 3.90318 6.53838 3.25198 9.64318H3.24798L3.24398 9.67198C3.24398 9.67198 3.24078 9.68078 3.23998 9.68638L0.937581 21.3456C0.855181 21.7064 0.800781 22.0784 0.800781 22.4632C0.800781 25.2104 3.02878 27.4368 5.77598 27.4368C7.65198 27.4368 9.26558 26.3864 10.1136 24.8528L11.7104 22.1752L12.6288 20.636C12.9152 20.156 13.432 19.8624 13.9912 19.8624H18.012C18.5704 19.8624 19.088 20.156 19.3744 20.636L20.2928 22.1752L21.8896 24.8528C22.7376 26.3864 24.3512 27.4368 26.2272 27.4368C28.9744 27.4368 31.2024 25.2104 31.2024 22.4632C31.2024 22.0784 31.148 21.7064 31.0656 21.3456H31.0632Z" fill="#3D3D3D"/>
<path d="M14.2245 10.9238H6.84766V12.907H14.2245V10.9238Z" fill="#767676"/>
<path d="M11.5262 8.22656H9.54297V15.6034H11.5262V8.22656Z" fill="#767676"/>
<path d="M19.4522 13.0743C20.0924 13.0743 20.6114 12.5553 20.6114 11.9151C20.6114 11.2749 20.0924 10.7559 19.4522 10.7559C18.812 10.7559 18.293 11.2749 18.293 11.9151C18.293 12.5553 18.812 13.0743 19.4522 13.0743Z" fill="#00BC79"/>
<path d="M24.3311 13.0743C24.9713 13.0743 25.4903 12.5553 25.4903 11.9151C25.4903 11.2749 24.9713 10.7559 24.3311 10.7559C23.6909 10.7559 23.1719 11.2749 23.1719 11.9151C23.1719 12.5553 23.6909 13.0743 24.3311 13.0743Z" fill="#EF4452"/>
<path d="M21.8897 10.6348C22.5299 10.6348 23.0489 10.1158 23.0489 9.47561C23.0489 8.8354 22.5299 8.31641 21.8897 8.31641C21.2495 8.31641 20.7305 8.8354 20.7305 9.47561C20.7305 10.1158 21.2495 10.6348 21.8897 10.6348Z" fill="#64A7FF"/>
<path d="M21.8897 15.5157C22.5299 15.5157 23.0489 14.9967 23.0489 14.3565C23.0489 13.7163 22.5299 13.1973 21.8897 13.1973C21.2495 13.1973 20.7305 13.7163 20.7305 14.3565C20.7305 14.9967 21.2495 15.5157 21.8897 15.5157Z" fill="#FFC84D"/>
</g>
<defs>
<clipPath id="clip0_10133_26599">
<rect width="32" height="32" fill="white"/>
</clipPath>
</defs>
</svg>
