<svg width="100%" height="100%" viewBox="0 0 32 32" fill="none" xmlns="http://www.w3.org/2000/svg">
<g clip-path="url(#clip0_10133_26586)">
<path d="M25.881 24.6142L28.1242 12.5694C28.2234 12.0366 27.6562 11.6286 27.1826 11.8934L23.1858 14.1278C22.0698 14.7518 20.661 14.391 19.9818 13.3078L16.5434 7.82539C16.2922 7.42539 15.7098 7.42539 15.4594 7.82539L12.021 13.3078C11.3418 14.391 9.933 14.751 8.817 14.1278L4.8202 11.8934C4.3466 11.6286 3.7794 12.0358 3.8786 12.5694L6.1218 24.6142" fill="#FFCD00"/>
<path d="M24.6147 28.4133H7.38749C6.62749 28.4133 6.12109 27.9069 6.12109 27.1469V24.6133H25.8811V27.1469C25.8811 27.7805 25.3747 28.4133 24.6147 28.4133Z" fill="#FFAD00"/>
<path d="M15.9991 7.5235C17.1182 7.5235 18.0255 6.61625 18.0255 5.4971C18.0255 4.37795 17.1182 3.4707 15.9991 3.4707C14.8799 3.4707 13.9727 4.37795 13.9727 5.4971C13.9727 6.61625 14.8799 7.5235 15.9991 7.5235Z" fill="#FFAD00"/>
<path d="M29.1748 12.4532C30.294 12.4532 31.2012 11.5459 31.2012 10.4268C31.2012 9.30764 30.294 8.40039 29.1748 8.40039C28.0557 8.40039 27.1484 9.30764 27.1484 10.4268C27.1484 11.5459 28.0557 12.4532 29.1748 12.4532Z" fill="#FFAD00"/>
<path d="M2.82718 12.4532C3.94633 12.4532 4.85358 11.5459 4.85358 10.4268C4.85358 9.30764 3.94633 8.40039 2.82718 8.40039C1.70803 8.40039 0.800781 9.30764 0.800781 10.4268C0.800781 11.5459 1.70803 12.4532 2.82718 12.4532Z" fill="#FFAD00"/>
</g>
<defs>
<clipPath id="clip0_10133_26586">
<rect width="32" height="32" fill="white"/>
</clipPath>
</defs>
</svg>
