<svg width="100%" height="100%" viewBox="0 0 32 32" fill="none" xmlns="http://www.w3.org/2000/svg">
<g clip-path="url(#clip0_10133_26566)">
<path d="M4.93222 29.7144L23.5826 23.0112L8.20022 7.68164L1.52822 26.3144C0.770621 28.4312 2.81702 30.4744 4.93222 29.7144Z" fill="#EF4452"/>
<path d="M8.28737 3.72903C9.1127 3.72903 9.78177 3.05997 9.78177 2.23463C9.78177 1.4093 9.1127 0.740234 8.28737 0.740234C7.46203 0.740234 6.79297 1.4093 6.79297 2.23463C6.79297 3.05997 7.46203 3.72903 8.28737 3.72903Z" fill="#EDCCF8"/>
<path d="M24.2625 22.6031C25.8652 21.0004 23.6621 16.1988 19.3416 11.8783C15.0212 7.55786 10.2195 5.3547 8.61681 6.95741C7.0141 8.56012 9.21726 13.3618 13.5377 17.6822C17.8582 22.0027 22.6598 24.2058 24.2625 22.6031Z" fill="#A41926"/>
<path d="M13.6538 11.0458C13.5634 11.0458 13.4706 11.033 13.3786 11.0074C12.8474 10.8562 12.5402 10.3026 12.6914 9.77143C13.1682 8.10183 13.1426 6.33863 12.617 4.67223C12.4506 4.14503 12.7434 3.58423 13.2698 3.41783C13.7962 3.25143 14.3578 3.54343 14.5242 4.07063C15.1682 6.11143 15.1994 8.27303 14.6146 10.3202C14.489 10.7594 14.0898 11.0458 13.6538 11.0458Z" fill="#B44BD7"/>
<path d="M23.4967 13.9656C23.1871 13.9656 22.8815 13.8224 22.6863 13.552C22.3623 13.1048 22.4623 12.48 22.9095 12.1552C25.0247 10.6224 27.5295 9.75118 30.1535 9.63678C30.7095 9.63118 31.1719 10.0408 31.1967 10.592C31.2207 11.144 30.7927 11.6104 30.2415 11.6352C28.0095 11.7328 25.8807 12.4728 24.0831 13.7752C23.9055 13.904 23.7007 13.9656 23.4975 13.9656H23.4967Z" fill="#EF4452"/>
<path d="M27.5078 19.0124C27.3806 19.0124 27.251 18.9876 27.1254 18.9356C26.4534 18.6572 25.7526 18.4428 25.0422 18.298C22.8238 17.8452 20.5398 18.0652 18.4374 18.9356C17.9246 19.146 17.3414 18.9044 17.131 18.3948C16.9198 17.8844 17.1622 17.2996 17.6718 17.0884C20.1446 16.0644 22.8326 15.8052 25.4422 16.3388C26.2774 16.5092 27.1014 16.7612 27.891 17.0884C28.4014 17.2996 28.6438 17.8844 28.4326 18.3948C28.2734 18.7796 27.8998 19.0124 27.5078 19.0124Z" fill="#7896FF"/>
<path d="M17.0869 14.0556C16.7869 14.0556 16.4893 13.9212 16.2925 13.6644C15.9565 13.2268 16.0389 12.5988 16.4773 12.2628C18.8829 10.4172 20.4253 7.74515 20.8213 4.73875C20.8933 4.19155 21.3965 3.80515 21.9429 3.87795C22.4909 3.94995 22.8765 4.45235 22.8037 4.99955C22.3381 8.53555 20.5237 11.678 17.6941 13.8492C17.5125 13.9884 17.2997 14.0556 17.0869 14.0556Z" fill="#4A81EC"/>
<path d="M12.5854 15.7899L12.5858 14.2883C12.5859 13.9759 12.3327 13.7226 12.0203 13.7225L10.5187 13.7222C10.2064 13.7221 9.95308 13.9752 9.953 14.2876L9.95263 15.7892C9.95256 16.1016 10.2057 16.3549 10.5181 16.355L12.0197 16.3553C12.3321 16.3554 12.5854 16.1022 12.5854 15.7899Z" fill="white"/>
<path d="M18.8957 0.444269L17.5242 1.136C17.239 1.27986 17.1244 1.6277 17.2683 1.91291L17.96 3.28433C18.1039 3.56955 18.4517 3.68414 18.7369 3.54028L20.1084 2.84854C20.3936 2.70468 20.5082 2.35685 20.3643 2.07164L19.6726 0.700214C19.5287 0.415 19.1809 0.300409 18.8957 0.444269Z" fill="#7896FF"/>
<path d="M29.8712 23.5209L30.3365 22.0571C30.4333 21.7526 30.2649 21.4274 29.9605 21.3306L28.4967 20.8653C28.1922 20.7686 27.867 20.9369 27.7702 21.2413L27.3049 22.7052C27.2082 23.0096 27.3765 23.3348 27.6809 23.4316L29.1448 23.8969C29.4492 23.9937 29.7744 23.8253 29.8712 23.5209Z" fill="#A8BFFF"/>
<path d="M26.8282 8.41226C27.4927 8.41226 28.0314 7.87357 28.0314 7.20906C28.0314 6.54455 27.4927 6.00586 26.8282 6.00586C26.1637 6.00586 25.625 6.54455 25.625 7.20906C25.625 7.87357 26.1637 8.41226 26.8282 8.41226Z" fill="#FFC84D"/>
<path d="M2.80476 13.6271C3.46927 13.6271 4.00796 13.0884 4.00796 12.4239C4.00796 11.7594 3.46927 11.2207 2.80476 11.2207C2.14025 11.2207 1.60156 11.7594 1.60156 12.4239C1.60156 13.0884 2.14025 13.6271 2.80476 13.6271Z" fill="#A8BFFF"/>
<path d="M19.6501 29.3178C20.4255 29.3178 21.0541 28.6892 21.0541 27.9138C21.0541 27.1384 20.4255 26.5098 19.6501 26.5098C18.8747 26.5098 18.2461 27.1384 18.2461 27.9138C18.2461 28.6892 18.8747 29.3178 19.6501 29.3178Z" fill="#FFC84D"/>
</g>
<defs>
<clipPath id="clip0_10133_26566">
<rect width="32" height="32" fill="white"/>
</clipPath>
</defs>
</svg>
