<svg width="100%" height="100%" viewBox="0 0 32 32" fill="none" xmlns="http://www.w3.org/2000/svg">
<g clip-path="url(#clip0_10133_13163)">
<path d="M16.0036 26.904C22.9372 26.904 28.558 21.3291 28.558 14.452C28.558 7.57495 22.9372 2 16.0036 2C9.07001 2 3.44922 7.57495 3.44922 14.452C3.44922 21.3291 9.07001 26.904 16.0036 26.904Z" fill="#93C9FF"/>
<path d="M3.45002 14.452C3.45002 7.5752 9.07082 2 16.0044 2C22.938 2 28.5588 7.5752 28.5588 14.452C28.5588 21.3288 3.45002 21.3288 3.45002 14.452Z" fill="#3182F6"/>
<path d="M3.44922 14.4525C3.44922 7.57572 28.5588 7.57572 28.5588 14.4525C28.5588 21.3293 3.44922 21.3293 3.44922 14.4525Z" fill="#64A7FF"/>
<path d="M20.7109 11.4282C21.6494 11.4282 22.4101 10.6739 22.4101 9.74339C22.4101 8.8129 21.6494 8.05859 20.7109 8.05859C19.7725 8.05859 19.0117 8.8129 19.0117 9.74339C19.0117 10.6739 19.7725 11.4282 20.7109 11.4282Z" fill="white"/>
<path d="M23.6021 29.9992H8.39886C7.82206 29.9992 7.44206 29.3976 7.69086 28.8768L9.29646 25.5128C9.42686 25.24 9.70206 25.0664 10.0045 25.0664H21.9973C22.2997 25.0664 22.5749 25.24 22.7053 25.5128L24.3109 28.8768C24.5597 29.3976 24.1789 29.9992 23.6021 29.9992Z" fill="#424F57"/>
</g>
<defs>
<clipPath id="clip0_10133_13163">
<rect width="32" height="32" fill="white"/>
</clipPath>
</defs>
</svg>
