<svg width="100%" height="100%" viewBox="0 0 32 32" fill="none" xmlns="http://www.w3.org/2000/svg">
<g clip-path="url(#clip0_10133_19256)">
<path d="M27.7297 12.5054C27.5073 6.33181 22.4433 1.33981 16.2673 1.20221C9.66252 1.05501 4.26172 6.36541 4.26172 12.9374C4.26172 14.927 4.75852 16.8006 5.63212 18.4422L5.62732 18.439C5.64012 18.4622 5.65212 18.483 5.66492 18.5054C5.69772 18.5662 5.73292 18.6254 5.76732 18.6862C5.80252 18.7486 5.83852 18.811 5.87372 18.871C5.93052 18.9686 5.98892 19.0646 6.04892 19.1598C6.08332 19.2142 6.11692 19.2662 6.15132 19.319C6.19532 19.387 6.23852 19.4558 6.28332 19.523C7.94572 21.9982 9.35932 22.1758 9.86012 24.0646H14.9401V18.415L12.2289 15.7038C11.7905 15.2654 11.7905 14.555 12.2289 14.1166C12.6673 13.6782 13.3777 13.6782 13.8161 14.1166L16.0169 16.3174L18.1825 14.1518C18.6209 13.7134 19.3313 13.7134 19.7697 14.1518C20.2081 14.5902 20.2081 15.3006 19.7697 15.739L17.0585 18.4502V24.0638H22.1385C22.6409 22.1678 24.0625 21.9958 25.7321 19.499C25.7337 19.4974 25.7345 19.495 25.7361 19.4934C25.8161 19.3742 25.8961 19.2486 25.9769 19.1182C26.0185 19.051 26.0593 18.9838 26.0993 18.9158C26.1905 18.763 26.2817 18.6062 26.3729 18.4382L26.3657 18.4422C27.3025 16.6814 27.8065 14.655 27.7289 12.5046L27.7297 12.5054Z" fill="#FFC33A"/>
<path d="M17.0607 24.0651V18.4515L19.7719 15.7403C20.2103 15.3019 20.2103 14.5915 19.7719 14.1531C19.3335 13.7147 18.6231 13.7147 18.1847 14.1531L16.0191 16.3187L13.8183 14.1179C13.3799 13.6795 12.6695 13.6795 12.2311 14.1179C11.7927 14.5563 11.7927 15.2667 12.2311 15.7051L14.9423 18.4163V24.0659H17.0615L17.0607 24.0651Z" fill="#FF9000"/>
<path d="M9.88281 24.0653C9.88841 24.1917 9.89241 24.3229 9.89401 24.4605V26.7637C9.89401 28.9917 11.8604 30.7981 14.0892 30.7981H17.91C20.138 30.7981 22.1292 28.9917 22.1292 26.7637V24.5493C22.1292 24.3781 22.134 24.2189 22.1412 24.0645H9.88361L9.88281 24.0653Z" fill="#7D8996"/>
<path d="M22.2773 24.2461H9.74609V26.6461H22.2773V24.2461Z" fill="#4B596A"/>
</g>
<defs>
<clipPath id="clip0_10133_19256">
<rect width="32" height="32" fill="white"/>
</clipPath>
</defs>
</svg>
