<svg width="24" height="24" viewBox="0 0 24 24" fill="none" xmlns="http://www.w3.org/2000/svg">
<g clip-path="url(#clip0_2673_27403)">
<path d="M19 2C20.6569 2 22 3.34315 22 5V19C22 20.6569 20.6569 22 19 22H5C3.34315 22 2 20.6569 2 19V5C2 3.34315 3.34315 2 5 2H19ZM15.707 9.29297C15.3165 8.90244 14.6835 8.90244 14.293 9.29297L11 12.5859L9.70703 11.293C9.31651 10.9024 8.68349 10.9024 8.29297 11.293C7.90244 11.6835 7.90244 12.3165 8.29297 12.707L10.293 14.707C10.6835 15.0976 11.3165 15.0976 11.707 14.707L15.707 10.707C16.0976 10.3165 16.0976 9.68349 15.707 9.29297Z" fill="currentColor"/>
</g>
<defs>
<clipPath id="clip0_2673_27403">
<rect width="24" height="24" fill="white"/>
</clipPath>
</defs>
</svg>
