<svg viewBox="0 0 24 24" fill="none" xmlns="http://www.w3.org/2000/svg">
<path d="M18.4189 12.1865C18.8683 11.8655 19.4925 11.9696 19.8135 12.4189C20.1345 12.8684 20.0305 13.4925 19.5811 13.8135L12.5811 18.8135C12.2334 19.0618 11.7666 19.0618 11.4189 18.8135L4.41895 13.8135C3.96958 13.4925 3.86553 12.8683 4.18652 12.4189C4.50753 11.9696 5.13166 11.8656 5.58105 12.1865L12 16.7715L18.4189 12.1865ZM18.4189 5.18652C18.8683 4.86558 19.4925 4.96964 19.8135 5.41895C20.1345 5.86834 20.0304 6.49246 19.5811 6.81348L12.5811 11.8135C12.2334 12.0618 11.7666 12.0618 11.4189 11.8135L4.41895 6.81348C3.9696 6.49245 3.86553 5.86833 4.18652 5.41895C4.50753 4.96963 5.13167 4.86561 5.58105 5.18652L12 9.77148L18.4189 5.18652Z" fill="url(#paint0_linear_8250_272)"/>
<defs>
<linearGradient id="paint0_linear_8250_272" x1="11.9998" y1="5" x2="11.9998" y2="18.9994" gradientUnits="userSpaceOnUse">
<stop stop-color="#5FE5EA"/>
<stop offset="1" stop-color="#8D5DF9"/>
</linearGradient>
</defs>
</svg>
