<svg viewBox="0 0 20 20" fill="none" xmlns="http://www.w3.org/2000/svg">
<g clip-path="url(#clip0_8543_908)">
<path d="M9.99805 17.9561C13.9331 17.9561 17.123 14.7661 17.123 10.8311C17.123 6.89603 13.9331 3.70605 9.99805 3.70605C6.06302 3.70605 2.87305 6.89603 2.87305 10.8311C2.87305 14.7661 6.06302 17.9561 9.99805 17.9561Z" fill="#E5E8EB"/>
<path d="M9.99804 18.7265C5.64454 18.7265 2.10254 15.185 2.10254 10.831C2.10254 6.47705 5.64404 2.93555 9.99804 2.93555C14.352 2.93555 17.8935 6.47705 17.8935 10.831C17.8935 15.185 14.352 18.7265 9.99804 18.7265ZM9.99804 4.47655C6.49404 4.47655 3.64354 7.32755 3.64354 10.831C3.64354 14.3345 6.49454 17.1855 9.99804 17.1855C13.5015 17.1855 16.3525 14.3345 16.3525 10.831C16.3525 7.32755 13.5015 4.47655 9.99804 4.47655Z" fill="#EF4452"/>
<path d="M16.8777 5.22657C17.3192 5.53557 17.9507 5.32107 18.0867 4.79957C18.3942 3.62157 17.9607 2.32457 16.9047 1.58557C15.8487 0.846071 14.4822 0.882071 13.4802 1.57407C13.0367 1.88057 13.0507 2.54707 13.4927 2.85657L16.8777 5.22657Z" fill="#EF4452"/>
<path d="M3.12024 5.22657C2.67874 5.53557 2.04724 5.32107 1.91124 4.79957C1.60374 3.62157 2.03724 2.32457 3.09324 1.58557C4.14924 0.846071 5.51574 0.882071 6.51774 1.57407C6.96124 1.88057 6.94724 2.54707 6.50524 2.85657L3.12024 5.22657Z" fill="#EF4452"/>
<path d="M9.99859 11.6015H7.05859C6.63309 11.6015 6.28809 11.2565 6.28809 10.831C6.28809 10.4055 6.63309 10.0605 7.05859 10.0605H9.99859C10.4241 10.0605 10.7691 10.4055 10.7691 10.831C10.7691 11.2565 10.4241 11.6015 9.99859 11.6015Z" fill="#EF4452"/>
<path d="M9.99902 11.6017C9.57352 11.6017 9.22852 11.2567 9.22852 10.8312V6.6162C9.22852 6.1907 9.57352 5.8457 9.99902 5.8457C10.4245 5.8457 10.7695 6.1907 10.7695 6.6162V10.8312C10.7695 11.2567 10.4245 11.6017 9.99902 11.6017Z" fill="#313D4C"/>
</g>
<defs>
<clipPath id="clip0_8543_908">
<rect width="20" height="20" fill="white"/>
</clipPath>
</defs>
</svg>
