<svg width="24" height="24" viewBox="0 0 24 24" fill="none" xmlns="http://www.w3.org/2000/svg">
<path d="M11.8418 2.17969C12.5837 2.17971 13.3141 2.36731 13.9648 2.72363C14.4535 2.99125 14.886 3.34764 15.2402 3.77344C15.795 3.71992 16.357 3.77164 16.8955 3.92773C17.6114 4.13526 18.263 4.52085 18.79 5.04785C19.3171 5.57496 19.7026 6.22739 19.9102 6.94336C20.0661 7.48166 20.1179 8.0431 20.0645 8.59766C20.4905 8.95197 20.8475 9.38512 21.1152 9.87402C21.4714 10.5246 21.6581 11.2544 21.6582 11.9961C21.6582 12.738 21.4715 13.4684 21.1152 14.1191C20.8475 14.6081 20.4896 15.0402 20.0635 15.3945C20.1167 15.9484 20.0658 16.5092 19.9102 17.0469C19.7031 17.7617 19.3186 18.4127 18.793 18.9395C18.2673 19.4663 17.6168 19.852 16.9023 20.0605C16.3652 20.2173 15.8048 20.2698 15.251 20.2178C14.8965 20.646 14.4638 21.0053 13.9736 21.2744C13.3217 21.6324 12.5894 21.8203 11.8457 21.8203C11.1021 21.8202 10.3706 21.6323 9.71875 21.2744C9.22881 21.0054 8.79576 20.6467 8.44141 20.2188C7.88813 20.2716 7.32805 20.22 6.79102 20.0645C6.07632 19.8574 5.42516 19.4738 4.89844 18.9482C4.37166 18.4225 3.98587 17.772 3.77734 17.0576C3.6206 16.5205 3.56721 15.96 3.61914 15.4062C3.18965 15.052 2.82968 14.6185 2.55957 14.1279C2.20012 13.4749 2.01074 12.7415 2.01074 11.9961C2.01083 11.2508 2.2001 10.5172 2.55957 9.86426C2.82985 9.3735 3.18939 8.93922 3.61914 8.58496C3.56751 8.03183 3.62079 7.47201 3.77734 6.93555C3.98588 6.22115 4.37165 5.57061 4.89844 5.04492C5.42523 4.51928 6.0762 4.13476 6.79102 3.92773C7.32833 3.77213 7.88883 3.72041 8.44238 3.77344C8.79667 3.34743 9.22989 2.99134 9.71875 2.72363C10.3696 2.36729 11.0998 2.17969 11.8418 2.17969ZM11.8398 7.65137C11.4284 7.65137 11.0947 7.98503 11.0947 8.39648V11.251H8.24023C7.8289 11.251 7.49532 11.5848 7.49512 11.9961C7.49512 12.4075 7.82878 12.7412 8.24023 12.7412H11.0947V15.5967C11.0949 16.008 11.4285 16.3418 11.8398 16.3418C12.2512 16.3418 12.5848 16.008 12.585 15.5967V12.7412H15.4404C15.8519 12.7412 16.1855 12.4075 16.1855 11.9961C16.1853 11.5848 15.8518 11.251 15.4404 11.251H12.585V8.39648C12.585 7.98503 12.2513 7.65137 11.8398 7.65137Z" fill="#09090B"/>
</svg>
