<svg width="24" height="24" viewBox="0 0 24 24" fill="none" xmlns="http://www.w3.org/2000/svg">
<path d="M12.0078 2.25C12.7379 2.25002 13.4563 2.43364 14.0967 2.78418C14.5887 3.05355 15.022 3.41584 15.375 3.84766C15.9334 3.78884 16.4997 3.83793 17.042 3.99512C17.7466 4.19937 18.3885 4.57894 18.9072 5.09766C19.4257 5.61624 19.8045 6.25763 20.0088 6.96191C20.1659 7.50385 20.2139 8.06994 20.1553 8.62793C20.5877 8.98113 20.9501 9.41476 21.2197 9.90723C21.5703 10.5476 21.7538 11.266 21.7539 11.9961C21.7539 12.7263 21.5704 13.4454 21.2197 14.0859C20.9502 14.5782 20.5875 15.0111 20.1553 15.3643C20.2136 15.9214 20.1655 16.4862 20.0088 17.0273C19.805 17.7309 19.4265 18.3722 18.9092 18.8906C18.3919 19.4089 17.7518 19.788 17.0488 19.9932C16.5079 20.151 15.9432 20.2008 15.3857 20.1436C15.0326 20.5777 14.5988 20.942 14.1055 21.2129C13.4639 21.5651 12.7436 21.75 12.0117 21.75C11.28 21.7499 10.5603 21.565 9.91895 21.2129C9.42541 20.9419 8.99091 20.5779 8.6377 20.1436C8.08115 20.2016 7.51709 20.1546 6.97656 19.998C6.27313 19.7943 5.63268 19.4157 5.11426 18.8984C4.59585 18.3811 4.21597 17.7411 4.01074 17.0381C3.85298 16.4976 3.80331 15.933 3.86035 15.376C3.42441 15.0229 3.05824 14.5889 2.78613 14.0947C2.43234 13.4521 2.24707 12.7297 2.24707 11.9961C2.24715 11.2627 2.43244 10.5409 2.78613 9.89844C3.05832 9.40409 3.42425 8.96933 3.86035 8.61621C3.80345 8.05947 3.85305 7.49535 4.01074 6.95508C4.21598 6.252 4.59581 5.61209 5.11426 5.09473C5.6327 4.57743 6.27309 4.19885 6.97656 3.99512C7.51766 3.83841 8.08253 3.78934 8.63965 3.84766C8.99267 3.41573 9.42593 3.05362 9.91797 2.78418C10.5585 2.43348 11.2776 2.25 12.0078 2.25ZM12.0078 3.75C11.5294 3.75 11.0583 3.87082 10.6387 4.10059C10.2193 4.33028 9.86412 4.66162 9.60645 5.06445C9.43652 5.33021 9.11835 5.46152 8.81055 5.39258C8.34228 5.2876 7.8545 5.30303 7.39355 5.43652C6.9329 5.57001 6.51337 5.81752 6.17383 6.15625C5.83419 6.49517 5.58468 6.91442 5.4502 7.375C5.31574 7.83565 5.30032 8.32353 5.4043 8.79199C5.47265 9.10052 5.34023 9.41883 5.07324 9.58789C4.66707 9.84494 4.33243 10.201 4.10059 10.6221C3.86889 11.043 3.74715 11.5156 3.74707 11.9961C3.74707 12.4768 3.86878 12.95 4.10059 13.3711C4.33242 13.7922 4.66707 14.1482 5.07324 14.4053C5.34023 14.5744 5.47269 14.8926 5.4043 15.2012C5.30034 15.6695 5.31591 16.1567 5.4502 16.6172C5.58465 17.0778 5.83416 17.4979 6.17383 17.8369C6.51337 18.1756 6.93291 18.4232 7.39355 18.5566C7.85452 18.6901 8.34226 18.7056 8.81055 18.6006L8.92578 18.584C9.19588 18.5663 9.45886 18.6962 9.60742 18.9297C9.86481 19.3342 10.2203 19.6677 10.6406 19.8984C11.0608 20.1291 11.5324 20.2499 12.0117 20.25C12.4912 20.25 12.9635 20.1292 13.3838 19.8984C13.8041 19.6677 14.1596 19.3342 14.417 18.9297L14.4873 18.8359C14.6658 18.6334 14.9434 18.5398 15.2129 18.5996C15.6813 18.7035 16.1683 18.6881 16.6289 18.5537C17.0895 18.4193 17.5087 18.1706 17.8477 17.8311C18.1866 17.4914 18.4349 17.0713 18.5684 16.6104C18.7018 16.1494 18.7163 15.6616 18.6113 15.1934C18.5426 14.8857 18.6738 14.5673 18.9395 14.3975C19.3424 14.1397 19.6746 13.7848 19.9043 13.3652C20.134 12.9457 20.2539 12.4744 20.2539 11.9961C20.2538 11.518 20.1339 11.0473 19.9043 10.6279C19.6745 10.2083 19.3425 9.85245 18.9395 9.59473C18.6736 9.4247 18.5422 9.1067 18.6113 8.79883C18.7167 8.32987 18.7022 7.84154 18.5684 7.37988C18.4345 6.91825 18.1856 6.49807 17.8457 6.1582C17.5058 5.81839 17.0856 5.56935 16.624 5.43555C16.1624 5.3018 15.674 5.28716 15.2051 5.39258C14.8972 5.46163 14.5792 5.33029 14.4092 5.06445C14.1515 4.66163 13.7963 4.3303 13.377 4.10059C12.9573 3.87084 12.4862 3.75002 12.0078 3.75Z" fill="#A1A1AA"/>
<path d="M12.0059 8.39624V15.5969" stroke="#A1A1AA" stroke-width="1.49" stroke-linecap="round" stroke-linejoin="round"/>
<path d="M8.40625 11.9965H15.6069" stroke="#A1A1AA" stroke-width="1.49" stroke-linecap="round" stroke-linejoin="round"/>
</svg>
