<svg viewBox="0 0 40 40" fill="none" xmlns="http://www.w3.org/2000/svg" preserveAspectRatio="xMidYMid meet">
<path d="M20.8936 10.1029V1.36694C20.8936 1.24294 20.8566 1.13094 20.8026 1.02794C20.6776 0.786943 20.4336 0.616943 20.1436 0.616943C19.7296 0.616943 19.3936 0.952943 19.3936 1.36694V9.98894C19.8886 9.84194 20.4186 9.88294 20.8936 10.1029Z" fill="#333D4B"/>
<path d="M22.597 34.5831L20.06 22.0601H20.021C19.848 22.9641 18.493 30.0381 17.538 34.6051C17.15 36.4591 15.517 37.7881 13.623 37.7891H26.518C24.615 37.7891 22.975 36.4481 22.597 34.5831Z" fill="#A41926"/>
<path d="M20.0203 22.061H33.3623C33.9523 22.061 34.4313 21.582 34.4313 20.992V18.635H5.56934V20.992C5.56934 21.582 6.04834 22.061 6.63834 22.061H20.0203Z" fill="#E32939"/>
<path d="M20.8937 9.04108L28.1367 5.97508C28.9507 5.63108 28.9507 4.47808 28.1367 4.13308L20.8037 1.02808C20.8567 1.13108 20.8947 1.24308 20.8947 1.36708V9.04108H20.8937Z" fill="#EF4452"/>
<path d="M17.537 34.6051C18.492 30.0381 19.847 22.9641 20.02 22.0601H7.68704L4.74305 36.5901C4.61705 37.2101 5.09105 37.7891 5.72305 37.7891H13.622C15.517 37.7891 17.149 36.4601 17.537 34.6051Z" fill="#EF4452"/>
<path d="M32.3126 22.061H20.0586L22.5956 34.584C22.9736 36.449 24.6126 37.79 26.5156 37.79H34.2756C34.9076 37.79 35.3816 37.211 35.2556 36.591L32.3126 22.061Z" fill="#EF4452"/>
<path d="M21.0344 10.1591C20.9894 10.1341 20.9394 10.1251 20.8934 10.1031C20.4184 9.88309 19.8884 9.8421 19.3934 9.9891C19.2474 10.0321 19.1024 10.0831 18.9654 10.1591L5.56836 18.6351H34.4304L21.0344 10.1591Z" fill="#EF4452"/>
</svg>
