<svg viewBox="0 0 16 16" fill="none" xmlns="http://www.w3.org/2000/svg">
<path d="M7.25 13.8667H3.7334C3.43899 13.8667 3.20043 13.6278 3.2002 13.3335V10.02H7.25V13.8667Z" fill="currentColor"/>
<path d="M12.7998 13.3335C12.7996 13.6278 12.561 13.8667 12.2666 13.8667H8.75V10.02H12.7998V13.3335Z" fill="currentColor"/>
<path fill-rule="evenodd" clip-rule="evenodd" d="M10.4004 2.1333C10.8953 2.1334 11.3697 2.33019 11.7197 2.68018C12.0696 3.03015 12.2665 3.50465 12.2666 3.99951C12.2665 4.49446 12.0697 4.96984 11.7197 5.31982C11.4166 5.62279 11.0199 5.80996 10.5977 5.85498H13.333C13.6274 5.85507 13.8661 6.0938 13.8662 6.38818V7.98779C13.8661 8.28218 13.6274 8.5209 13.333 8.521L8.75 8.52002V5.8667H7.25V8.52002H3.17285L2.66602 8.521C2.37154 8.521 2.13294 8.28224 2.13281 7.98779V6.38818C2.13295 6.09375 2.37155 5.85498 2.66602 5.85498H5.40234C4.98012 5.80996 4.58339 5.62279 4.28027 5.31982C3.93029 4.96984 3.7335 4.49446 3.7334 3.99951C3.73349 3.50464 3.9304 3.03015 4.28027 2.68018C4.63027 2.33018 5.10466 2.13339 5.59961 2.1333C6.82955 2.1333 7.56988 3.01924 7.96777 3.74268C7.97912 3.76332 7.98907 3.78458 8 3.80518C8.01093 3.78458 8.02088 3.76332 8.03223 3.74268C8.43012 3.01924 9.17045 2.1333 10.4004 2.1333ZM5.59961 3.19971C5.38756 3.1998 5.18413 3.28413 5.03418 3.43408C4.88434 3.58401 4.7999 3.78755 4.7998 3.99951C4.7999 4.21156 4.88423 4.41597 5.03418 4.56592C5.1841 4.71566 5.38771 4.8002 5.59961 4.80029H7.28125C7.21619 4.63006 7.13407 4.44255 7.03223 4.25732C6.69677 3.64741 6.23637 3.19971 5.59961 3.19971ZM10.4004 3.19971C9.76363 3.19971 9.30323 3.64741 8.96777 4.25732C8.86593 4.44255 8.78381 4.63006 8.71875 4.80029H10.4004C10.6123 4.8002 10.8159 4.71566 10.9658 4.56592C11.1158 4.41597 11.2001 4.21156 11.2002 3.99951C11.2001 3.78755 11.1157 3.58401 10.9658 3.43408C10.8159 3.28413 10.6124 3.1998 10.4004 3.19971Z" fill="currentColor"/>
</svg>
