<svg width="16" height="16" viewBox="0 0 20 20" fill="none" xmlns="http://www.w3.org/2000/svg">
<g clip-path="url(#clip0_8144_34157)">
<path d="M16.25 4.50098H11.25V18.6675H16.25C17.1705 18.6675 17.9165 17.9215 17.9165 17.001V6.16748C17.9165 5.24698 17.1705 4.50098 16.25 4.50098Z" fill="#EF4452"/>
<path d="M8.75048 4.50098H3.75048C2.82998 4.50098 2.08398 5.24698 2.08398 6.16748V17.001C2.08398 17.9215 2.82998 18.6675 3.75048 18.6675H8.75048V4.50098Z" fill="#EF4452"/>
<path d="M14.7295 2.16511V4.50011H11.2495V18.6701H8.74953V4.50011H5.26953V2.16511C5.26953 1.57511 5.87453 1.17011 6.41953 1.39511L9.99953 2.86511L13.5795 1.39511C14.1245 1.17011 14.7295 1.57511 14.7295 2.16511Z" fill="#FFCD00"/>
</g>
<defs>
<clipPath id="clip0_8144_34157">
<rect width="20" height="20" fill="white"/>
</clipPath>
</defs>
</svg>
