<svg width="100%" height="100%" viewBox="0 0 20 20" fill="none" xmlns="http://www.w3.org/2000/svg">
<path d="M9.60645 0.932951C9.89277 0.779344 10.2484 0.804408 10.5117 1.00912L18.0117 6.84311C18.2144 7.00093 18.3329 7.24348 18.333 7.50033V16.6673C18.3329 17.33 18.0701 17.9662 17.6016 18.4349C17.1327 18.9036 16.4959 19.1673 15.833 19.1673H10.833V11.6673C10.833 11.2071 10.4602 10.8343 10 10.8343C9.53993 10.8343 9.16726 11.2063 9.16699 11.6663V19.1673H4.16699C3.50408 19.1673 2.86725 18.9036 2.39844 18.4349C1.92993 17.9662 1.66713 17.33 1.66699 16.6673V7.50033C1.66709 7.24348 1.78565 7.00093 1.98828 6.84311L9.48828 1.00912L9.60645 0.932951Z" fill="currentColor"/>
</svg>
