<svg width="24" height="24" viewBox="0 0 24 24" fill="none" xmlns="http://www.w3.org/2000/svg">
<path d="M19.5747 5.32829C19.1234 4.87538 18.5871 4.51603 17.9966 4.27083C17.4061 4.02563 16.773 3.89941 16.1336 3.89941C15.4942 3.89941 14.8611 4.02563 14.2706 4.27083C13.6801 4.51603 13.1438 4.87538 12.6924 5.32829L11.9997 6.03001L11.307 5.32829C10.8556 4.87538 10.3193 4.51603 9.72881 4.27083C9.1383 4.02563 8.5052 3.89941 7.8658 3.89941C7.22641 3.89941 6.5933 4.02563 6.00279 4.27083C5.41228 4.51603 4.87598 4.87538 4.42464 5.32829C2.51739 7.23554 2.40044 10.4563 4.8025 12.9033L11.9997 20.1005L19.1969 12.9033C21.5989 10.4563 21.482 7.23554 19.5747 5.32829Z" stroke="#A1A1AA" stroke-width="1.64" stroke-linecap="round" stroke-linejoin="round"/>
</svg>
