<svg width="24" height="24" viewBox="0 0 24 24" fill="none" xmlns="http://www.w3.org/2000/svg">
<path d="M16.1328 3.07959C16.88 3.07959 17.6204 3.22762 18.3105 3.51416C19 3.80048 19.6262 4.21993 20.1533 4.74854C22.4095 7.00471 22.4669 10.7421 19.7812 13.478L12.5791 20.6802C12.4254 20.8337 12.2163 20.9204 11.999 20.9204C11.7817 20.9203 11.5726 20.8338 11.4189 20.6802L4.22266 13.4829L4.2168 13.478C1.53141 10.7423 1.5889 7.00472 3.84473 4.74854C4.37188 4.21986 4.99898 3.80052 5.68848 3.51416C6.37838 3.22772 7.11823 3.07967 7.86523 3.07959C8.61247 3.07959 9.35285 3.22762 10.043 3.51416C10.6466 3.76483 11.2019 4.11744 11.6846 4.55615L11.8877 4.74951L11.8896 4.75244L11.999 4.86279L12.1084 4.75244L12.1113 4.74951C12.6385 4.22054 13.2654 3.80067 13.9551 3.51416C14.6451 3.22764 15.3857 3.07965 16.1328 3.07959Z" fill="#09090B"/>
</svg>
