<svg viewBox="0 0 16 16" fill="none" xmlns="http://www.w3.org/2000/svg">
<path d="M8 2C8.87785 2.00008 9.72324 2.33941 10.3496 2.94824C10.9766 3.55792 11.333 4.38927 11.333 5.25977V6H11.6289C12.6635 6 13.3329 6.9427 13.333 7.87891V12.1211C13.3329 13.0573 12.6635 14 11.6289 14H4.37012C3.33554 14 2.66617 13.0573 2.66602 12.1211V7.87891C2.66611 6.9427 3.33549 6 4.37012 6H4.66602V5.25977C4.66602 4.38927 5.02241 3.55792 5.64941 2.94824C6.27588 2.33923 7.12195 2 8 2ZM7.99902 7.66699C7.26308 7.66717 6.66619 8.26406 6.66602 9C6.66614 9.52266 6.96822 9.97402 7.40625 10.1924C7.40323 10.2167 7.39942 10.2415 7.39941 10.2666V11.7334C7.39962 12.0645 7.66796 12.3328 7.99902 12.333C8.33026 12.333 8.5994 12.0646 8.59961 11.7334V10.2666C8.59961 10.2418 8.59476 10.2174 8.5918 10.1934C9.03032 9.97517 9.33191 9.52303 9.33203 9C9.33185 8.26395 8.73512 7.66699 7.99902 7.66699ZM8 3.33398C7.46369 3.33398 6.95281 3.54107 6.5791 3.9043C6.20612 4.267 6 4.75521 6 5.25977V6H10V5.25977C10 4.75527 9.79379 4.26699 9.4209 3.9043C9.04725 3.54103 8.53628 3.33407 8 3.33398Z" fill="currentColor"/>
</svg>
