<svg viewBox="0 0 40 40" fill="none" xmlns="http://www.w3.org/2000/svg" preserveAspectRatio="xMidYMid meet">
<path d="M24.166 2.3335C24.4312 2.3335 24.6855 2.43893 24.873 2.62646L34.04 11.7935C34.2273 11.981 34.333 12.2355 34.333 12.5005V13.3159C34.3331 13.3216 34.334 13.3278 34.334 13.3335C34.334 13.339 34.3331 13.3446 34.333 13.3501V33.3335C34.3329 34.4826 33.876 35.5854 33.0635 36.3979C32.2509 37.2103 31.1481 37.6665 29.999 37.6665H9.99902C8.85016 37.6664 7.74803 37.2102 6.93555 36.3979C6.123 35.5854 5.66614 34.4826 5.66602 33.3335V6.6665C5.6661 5.51752 6.12319 4.41557 6.93555 3.60303C7.74807 2.7905 8.84996 2.33365 9.99902 2.3335H24.166ZM9.99902 4.3335C9.38039 4.33365 8.78706 4.57964 8.34961 5.01709C7.91232 5.45456 7.6661 6.04795 7.66602 6.6665V33.3335C7.66614 33.9522 7.91213 34.5464 8.34961 34.9839C8.78702 35.4211 9.38059 35.6664 9.99902 35.6665H29.999C30.6176 35.6665 31.2119 35.4212 31.6494 34.9839C32.0869 34.5464 32.3329 33.9522 32.333 33.3335V14.3335H23.334C22.7819 14.3335 22.3342 13.8856 22.334 13.3335V4.3335H9.99902ZM24.334 12.3335H31.752L24.334 4.91553V12.3335Z" fill="#D4D4D8"/>
<rect x="2.5" y="18.3335" width="25" height="13.3333" rx="2.66667" fill="#EF4444"/>
<path d="M19.5703 21.4141H24.1672V22.4939H20.8582V24.4556H23.8502V25.5354H20.8582V28.5868H19.5703V21.4141Z" fill="white"/>
<path d="M12.5156 28.5868V21.4141H14.9924C15.7024 21.4141 16.315 21.5577 16.8302 21.845C17.3454 22.129 17.74 22.5402 18.0141 23.0785C18.2915 23.6168 18.4302 24.2541 18.4302 24.9905C18.4302 25.7336 18.2915 26.3759 18.0141 26.9175C17.7367 27.4558 17.3371 27.8686 16.8153 28.1559C16.2936 28.4432 15.6727 28.5868 14.9528 28.5868H12.5156ZM14.8834 27.4673C15.6331 27.4673 16.1961 27.2609 16.5726 26.8481C16.9524 26.4353 17.1423 25.8161 17.1423 24.9905C17.1423 24.1716 16.9557 23.5573 16.5825 23.1478C16.2093 22.7383 15.6562 22.5336 14.9231 22.5336H13.8036V27.4673H14.8834Z" fill="white"/>
<path d="M6.25977 21.4141H8.95451C9.4895 21.4141 9.94688 21.5148 10.3267 21.7162C10.7064 21.9177 10.9937 22.1984 11.1886 22.5583C11.3834 22.915 11.4808 23.3261 11.4808 23.7918C11.4808 24.2541 11.3818 24.6653 11.1836 25.0252C10.9888 25.3819 10.6998 25.6609 10.3167 25.8624C9.93367 26.0605 9.47299 26.1596 8.9347 26.1596H7.5477V28.5868H6.25977V21.4141ZM8.75637 25.0995C9.22531 25.0995 9.57701 24.9823 9.81148 24.7478C10.0459 24.51 10.1632 24.1914 10.1632 23.7918C10.1632 23.3889 10.0459 23.0719 9.81148 22.8407C9.57701 22.6095 9.22531 22.4939 8.75637 22.4939H7.5477V25.0995H8.75637Z" fill="white"/>
</svg>
