<svg viewBox="0 0 28 28" fill="none" xmlns="http://www.w3.org/2000/svg">
<path d="M17.3266 1.16724H6.98303C6.2973 1.16724 5.63965 1.43964 5.15476 1.92453C4.66987 2.40942 4.39746 3.06707 4.39746 3.75281V24.4374C4.39746 25.1231 4.66987 25.7808 5.15476 26.2657C5.63965 26.7505 6.2973 27.023 6.98303 27.023H22.4965C23.1822 27.023 23.8398 26.7505 24.3247 26.2657C24.8096 25.7808 25.082 25.1231 25.082 24.4374V8.92395L17.3266 1.16724Z" fill="#E4E4E7"/>
<path d="M17.3271 1.16724V8.92395H25.0839" fill="#D4D4D8"/>
<rect x="1.16602" y="12.8015" width="19.3918" height="10.3423" rx="2.06846" fill="#EF4444"/>
<path d="M14.4033 15.189H17.969V16.0266H15.4023V17.5482H17.7231V18.3858H15.4023V20.7527H14.4033V15.189Z" fill="white"/>
<path d="M8.93262 20.7527V15.189H10.8538C11.4045 15.189 11.8797 15.3004 12.2793 15.5232C12.6789 15.7435 12.985 16.0625 13.1976 16.48C13.4128 16.8975 13.5204 17.3919 13.5204 17.9631C13.5204 18.5395 13.4128 19.0377 13.1976 19.4578C12.9825 19.8754 12.6725 20.1955 12.2678 20.4184C11.863 20.6413 11.3815 20.7527 10.8231 20.7527H8.93262ZM10.7693 19.8843C11.3507 19.8843 11.7875 19.7242 12.0795 19.404C12.3741 19.0838 12.5214 18.6035 12.5214 17.9631C12.5214 17.3279 12.3766 16.8514 12.0872 16.5338C11.7977 16.2162 11.3687 16.0573 10.8 16.0573H9.93163V19.8843H10.7693Z" fill="white"/>
<path d="M4.0791 15.189H6.16934C6.58431 15.189 6.93909 15.2671 7.23367 15.4233C7.52825 15.5796 7.75111 15.7973 7.90224 16.0765C8.05337 16.3532 8.12894 16.6721 8.12894 17.0333C8.12894 17.3919 8.05209 17.7108 7.8984 17.99C7.74726 18.2667 7.52313 18.4831 7.22599 18.6394C6.92884 18.7931 6.57151 18.8699 6.15397 18.8699H5.07811V20.7527H4.0791V15.189ZM6.01565 18.0477C6.37939 18.0477 6.65219 17.9567 6.83407 17.7749C7.01594 17.5904 7.10687 17.3432 7.10687 17.0333C7.10687 16.7208 7.01594 16.4749 6.83407 16.2956C6.65219 16.1163 6.37939 16.0266 6.01565 16.0266H5.07811V18.0477H6.01565Z" fill="white"/>
</svg>
