<svg width="24" height="24" viewBox="0 0 24 24" fill="none" xmlns="http://www.w3.org/2000/svg">
<path d="M11.1155 3.73458C11.1541 3.52817 11.2636 3.34175 11.4251 3.20759C11.5867 3.07344 11.79 3 12 3C12.21 3 12.4133 3.07344 12.5749 3.20759C12.7364 3.34175 12.8459 3.52817 12.8845 3.73458L13.8302 8.73558C13.8973 9.09113 14.0701 9.41817 14.326 9.67403C14.5818 9.92989 14.9089 10.1027 15.2644 10.1698L20.2654 11.1155C20.4718 11.1541 20.6583 11.2636 20.7924 11.4251C20.9266 11.5867 21 11.79 21 12C21 12.21 20.9266 12.4133 20.7924 12.5749C20.6583 12.7364 20.4718 12.8459 20.2654 12.8845L15.2644 13.8302C14.9089 13.8973 14.5818 14.0701 14.326 14.326C14.0701 14.5818 13.8973 14.9089 13.8302 15.2644L12.8845 20.2654C12.8459 20.4718 12.7364 20.6583 12.5749 20.7924C12.4133 20.9266 12.21 21 12 21C11.79 21 11.5867 20.9266 11.4251 20.7924C11.2636 20.6583 11.1541 20.4718 11.1155 20.2654L10.1698 15.2644C10.1027 14.9089 9.92989 14.5818 9.67403 14.326C9.41817 14.0701 9.09113 13.8973 8.73558 13.8302L3.73458 12.8845C3.52817 12.8459 3.34175 12.7364 3.20759 12.5749C3.07344 12.4133 3 12.21 3 12C3 11.79 3.07344 11.5867 3.20759 11.4251C3.34175 11.2636 3.52817 11.1541 3.73458 11.1155L8.73558 10.1698C9.09113 10.1027 9.41817 9.92989 9.67403 9.67403C9.92989 9.41817 10.1027 9.09113 10.1698 8.73558L11.1155 3.73458Z" fill="#09090B" stroke="#09090B" stroke-width="1.64" stroke-linecap="round" stroke-linejoin="round"/>
</svg>
