<svg viewBox="0 0 120 120" fill="none" xmlns="http://www.w3.org/2000/svg">
<g clip-path="url(#clip0_1198_4761)">
<path d="M59.8496 0C67.8835 0 74.666 5.353 76.8281 12.6865C79.2655 11.8527 81.8797 11.4004 84.5996 11.4004C97.8544 11.4004 108.6 22.1456 108.6 35.4004C108.6 38.0693 108.163 40.636 107.358 43.0342C114.669 45.2106 120 51.9824 120 60C120 68.0175 114.669 74.7883 107.358 76.9648C108.163 79.3633 108.6 81.9303 108.6 84.5996C108.6 97.8544 97.8544 108.6 84.5996 108.6C81.9303 108.6 79.3633 108.163 76.9648 107.358C74.7883 114.669 68.0175 120 60 120C51.9824 120 45.2106 114.669 43.0342 107.358C40.636 108.163 38.0694 108.6 35.4004 108.6C22.1456 108.6 11.4004 97.8544 11.4004 84.5996C11.4004 81.9305 11.8364 79.3632 12.6406 76.9648C5.33065 74.788 0 68.0172 0 60C1.18358e-05 51.9827 5.33052 45.2109 12.6406 43.0342C11.8366 40.6361 11.4004 38.0692 11.4004 35.4004C11.4004 22.1456 22.1456 11.4004 35.4004 11.4004C38.0186 11.4004 40.5385 11.8206 42.8975 12.5957C45.0885 5.30876 51.8489 0.000119809 59.8496 0ZM58.9199 15.5557C58.4875 39.3658 39.3341 58.6015 15.5557 59.1631V60.8359C39.334 61.3975 58.4874 80.6342 58.9199 104.444H60.5869C61.0224 80.47 80.4384 61.1354 104.444 60.8301V59.166C80.5521 58.7319 61.2679 39.4479 60.834 15.5557H58.9199Z" fill="currentColor"/>
<circle cx="55.2773" cy="54.1667" r="2.5" fill="currentColor"/>
<circle cx="64.7227" cy="54.1667" r="2.5" fill="currentColor"/>
<path d="M68.2228 60.4445C68.2228 62.5073 67.3565 64.4856 65.8145 65.9442C64.2726 67.4028 62.1812 68.2222 60.0005 68.2222C57.8199 68.2222 55.7285 67.4028 54.1866 65.9442C52.6446 64.4856 51.7783 62.5073 51.7783 60.4445" stroke="currentColor" stroke-width="3.55556" stroke-linecap="round"/>
</g>
<defs>
<clipPath id="clip0_1198_4761">
<rect width="120" height="120" fill="white"/>
</clipPath>
</defs>
</svg>
