<svg width="145" height="145" viewBox="0 0 145 145" fill="none" xmlns="http://www.w3.org/2000/svg">
<path d="M72.3184 0C82.0262 0 90.2216 6.46851 92.834 15.3301C95.7792 14.3226 98.938 13.7754 102.225 13.7754C118.241 13.7754 131.225 26.7591 131.225 42.7754C131.225 46.0001 130.697 49.1014 129.726 51.999C138.559 54.6292 145 62.8114 145 72.499C145 82.1869 138.558 90.3681 129.725 92.998C130.697 95.8965 131.225 98.9988 131.225 102.225C131.225 118.241 118.241 131.225 102.225 131.225C98.9991 131.225 95.8972 130.697 92.999 129.725C90.3687 138.558 82.1874 144.999 72.5 144.999C62.8125 144.999 54.6302 138.558 52 129.725C49.102 130.696 46.0005 131.225 42.7754 131.225C26.7591 131.225 13.7754 118.241 13.7754 102.225C13.7754 98.9989 14.3024 95.8964 15.2744 92.998C6.4414 90.3678 5.91828e-06 82.1865 0 72.499C0 62.8117 6.44074 54.6295 15.2734 51.999C14.302 49.1015 13.7754 46 13.7754 42.7754C13.7754 26.7591 26.7591 13.7754 42.7754 13.7754C45.9393 13.7754 48.9845 14.2831 51.835 15.2197C54.4825 6.41479 62.6509 0.00019996 72.3184 0ZM73.2246 42.7539C72.9242 42.7664 72.6218 42.7754 72.3184 42.7754C72.1365 42.7754 71.9552 42.7721 71.7744 42.7676C71.7744 42.7701 71.7754 42.7728 71.7754 42.7754C71.7753 58.7915 58.7914 71.7752 42.7754 71.7754C42.7706 71.7754 42.7655 71.7744 42.7607 71.7744C42.7688 72.015 42.7754 72.2565 42.7754 72.499C42.7754 72.7419 42.7688 72.9837 42.7607 73.2246C42.7655 73.2246 42.7706 73.2246 42.7754 73.2246C58.7913 73.2248 71.7752 86.2086 71.7754 102.225C71.7754 102.228 71.7744 102.233 71.7744 102.236C72.0153 102.228 72.2572 102.224 72.5 102.224C72.7425 102.224 72.9841 102.228 73.2246 102.236C73.2246 102.233 73.2246 102.228 73.2246 102.225C73.2248 86.2086 86.2086 73.2248 102.225 73.2246C102.229 73.2246 102.234 73.2246 102.238 73.2246C102.23 72.9837 102.225 72.7419 102.225 72.499C102.225 72.2565 102.23 72.015 102.238 71.7744C102.234 71.7744 102.229 71.7754 102.225 71.7754C86.2086 71.7752 73.2247 58.7915 73.2246 42.7754C73.2246 42.7683 73.2246 42.761 73.2246 42.7539Z" fill="#09090B"/>
</svg>
