<svg viewBox="0 0 1102 484" fill="none" xmlns="http://www.w3.org/2000/svg">
<path d="M134.277 322.289C156.478 322.289 175.456 314.411 191.211 298.656C206.966 282.901 214.844 263.923 214.844 241.723C214.844 219.522 206.966 200.544 191.211 184.789C175.456 169.034 156.478 161.156 134.277 161.156C112.077 161.156 93.099 169.034 77.3438 184.789C61.5885 200.544 53.7109 219.522 53.7109 241.723C53.7109 263.923 61.5885 282.901 77.3438 298.656C93.099 314.411 112.077 322.289 134.277 322.289ZM0 241.723C0 204.662 13.0697 173.062 39.209 146.923C65.5273 120.604 97.2168 107.445 134.277 107.445C171.338 107.445 202.938 120.604 229.077 146.923C255.396 173.062 268.555 204.662 268.555 241.723C268.555 278.783 255.396 310.473 229.077 336.791C202.938 362.93 171.338 376 134.277 376C103.662 376 76.8066 367.138 53.7109 349.413V483.422H0V241.723ZM429.688 107.445C466.748 107.445 498.348 120.604 524.487 146.923C550.806 173.062 563.965 204.662 563.965 241.723C563.965 278.783 550.806 310.473 524.487 336.791C498.348 362.93 466.748 376 429.688 376C392.627 376 360.938 362.93 334.619 336.791C308.48 310.473 295.41 278.783 295.41 241.723C295.41 204.662 308.48 173.062 334.619 146.923C360.938 120.604 392.627 107.445 429.688 107.445ZM429.688 161.156C407.487 161.156 388.509 169.034 372.754 184.789C356.999 200.544 349.121 219.522 349.121 241.723C349.121 263.923 356.999 282.901 372.754 298.656C388.509 314.411 407.487 322.289 429.688 322.289C451.888 322.289 470.866 314.411 486.621 298.656C502.376 282.901 510.254 263.923 510.254 241.723C510.254 219.522 502.376 200.544 486.621 184.789C470.866 169.034 451.888 161.156 429.688 161.156ZM644.531 376H590.82V0.0234375H644.531V376ZM725.098 376H671.387V0.0234375H725.098V376ZM805.664 107.445V376H751.953V107.445H805.664ZM751.953 53.7344V0.0234375H805.664V53.7344H751.953ZM966.797 161.156C944.596 161.156 925.618 169.034 909.863 184.789C894.108 200.544 886.23 219.522 886.23 241.723C886.23 263.923 894.108 282.901 909.863 298.656C925.618 314.411 944.596 322.289 966.797 322.289C988.997 322.289 1007.98 314.411 1023.73 298.656C1039.49 282.901 1047.36 263.923 1047.36 241.723C1047.36 219.522 1039.49 200.544 1023.73 184.789C1007.98 169.034 988.997 161.156 966.797 161.156ZM1047.36 349.413C1024.27 367.138 997.412 376 966.797 376C929.736 376 898.047 362.93 871.729 336.791C845.589 310.473 832.52 278.783 832.52 241.723C832.52 204.662 845.589 173.062 871.729 146.923C898.047 120.604 929.736 107.445 966.797 107.445C1003.86 107.445 1035.46 120.604 1061.6 146.923C1087.92 173.062 1101.07 204.662 1101.07 241.723V376H1047.36V349.413Z" fill="currentColor"/>
</svg>
