<svg viewBox="0 0 24 24" fill="none" xmlns="http://www.w3.org/2000/svg">
<path d="M11.9697 0C13.577 0 14.9333 1.07161 15.3652 2.53906C15.853 2.3721 16.3756 2.28029 16.9199 2.28027C19.5709 2.28027 21.7197 4.42912 21.7197 7.08008C21.7197 7.61397 21.6306 8.12673 21.4697 8.60645C22.9326 9.04124 24 10.3959 24 12C23.9999 13.6039 22.9325 14.9577 21.4697 15.3926C21.6308 15.8725 21.7197 16.3857 21.7197 16.9199C21.7197 19.5709 19.5709 21.7197 16.9199 21.7197C16.3857 21.7197 15.8725 21.6308 15.3926 21.4697C14.9578 22.9327 13.6041 24 12 24C10.3958 23.9999 9.04108 22.9328 8.60645 21.4697C8.12674 21.6306 7.61395 21.7197 7.08008 21.7197C4.42912 21.7197 2.28028 19.5709 2.28027 16.9199C2.28027 16.3858 2.36831 15.8725 2.5293 15.3926C1.06683 14.9576 7.73692e-05 13.6037 0 12C0 10.3961 1.06669 9.04142 2.5293 8.60645C2.36849 8.12682 2.28028 7.61385 2.28027 7.08008C2.28027 4.42912 4.42912 2.28027 7.08008 2.28027C7.60364 2.28028 8.10739 2.36456 8.5791 2.51953C9.0171 1.06199 10.3696 0.000192784 11.9697 0ZM11.9697 7.08008C11.9393 7.08007 11.9091 7.07791 11.8789 7.07715L11.8799 7.08008C11.8798 9.73098 9.73098 11.8798 7.08008 11.8799C7.0788 11.8799 7.07745 11.8789 7.07617 11.8789C7.07752 11.9191 7.08008 11.9595 7.08008 12C7.08008 12.0402 7.0775 12.0802 7.07617 12.1201C7.07745 12.1201 7.0788 12.1201 7.08008 12.1201C9.731 12.1202 11.8799 14.269 11.8799 16.9199L11.8789 16.9229C11.9191 16.9215 11.9595 16.9199 12 16.9199C12.0401 16.9199 12.0803 16.9215 12.1201 16.9229V16.9199C12.1201 14.269 14.269 12.1202 16.9199 12.1201H16.9219C16.9205 12.0802 16.9199 12.0402 16.9199 12C16.9199 11.9595 16.9205 11.919 16.9219 11.8789L16.9199 11.8799C14.2691 11.8798 12.1202 9.73094 12.1201 7.08008C12.1201 7.07847 12.1201 7.0768 12.1201 7.0752C12.0704 7.07727 12.02 7.08008 11.9697 7.08008Z" fill="currentColor"/>
<circle cx="12" cy="12" r="6" fill="currentColor"/>
</svg>
