<svg width="24" height="24" viewBox="0 0 24 24" fill="none" xmlns="http://www.w3.org/2000/svg">
<path d="M11.9698 0C13.5768 0 14.933 1.07108 15.3653 2.53809C15.8529 2.37121 16.3758 2.28028 16.92 2.28027C19.5709 2.28027 21.7198 4.42912 21.7198 7.08008C21.7197 7.61395 21.6306 8.12674 21.4698 8.60645C22.9328 9.04114 24 10.3958 24 12C23.9999 13.604 22.9327 14.9579 21.4698 15.3926C21.6308 15.8725 21.7198 16.3857 21.7198 16.9199C21.7197 19.5709 19.5709 21.7197 16.92 21.7197C16.3858 21.7197 15.8726 21.6308 15.3926 21.4697C14.9579 22.9327 13.6041 24 12 24C10.3958 24 9.04115 22.9328 8.60648 21.4697C8.12678 21.6306 7.61397 21.7197 7.08011 21.7197C4.42916 21.7197 2.28031 19.5709 2.2803 16.9199C2.2803 16.3858 2.36833 15.8725 2.52933 15.3926C1.06687 14.9576 0.000133781 13.6037 3.05176e-05 12C3.05176e-05 10.3961 1.06673 9.04143 2.52933 8.60645C2.36851 8.12681 2.28031 7.61386 2.2803 7.08008C2.2803 4.42912 4.42915 2.28027 7.08011 2.28027C7.60377 2.28029 8.10734 2.36547 8.57913 2.52051C9.01686 1.0625 10.3692 0.000158544 11.9698 0ZM11.9698 7.08008C11.9394 7.08008 11.9091 7.07791 11.8789 7.07715L11.8799 7.08008C11.8799 9.73094 9.73096 11.8798 7.08011 11.8799C7.07887 11.8799 7.07744 11.8789 7.0762 11.8789C7.07755 11.919 7.08011 11.9595 7.08011 12C7.08011 12.0402 7.07754 12.0802 7.0762 12.1201C7.07744 12.1201 7.07887 12.1201 7.08011 12.1201C9.73098 12.1202 11.8799 14.269 11.8799 16.9199L11.8789 16.9229C11.9191 16.9215 11.9595 16.9199 12 16.9199C12.0402 16.9199 12.0803 16.9215 12.1201 16.9229V16.9199C12.1201 14.269 14.269 12.1201 16.92 12.1201H16.9229C16.9215 12.0802 16.92 12.0402 16.92 12C16.92 11.9595 16.9215 11.919 16.9229 11.8789L16.92 11.8799C14.269 11.8799 12.1202 9.731 12.1201 7.08008C12.1201 7.07847 12.1201 7.0768 12.1201 7.0752C12.0704 7.07727 12.02 7.08008 11.9698 7.08008Z" fill="white"/>
</svg>
