<svg viewBox="0 0 40 40" fill="none" xmlns="http://www.w3.org/2000/svg" preserveAspectRatio="xMidYMid meet">
<g clip-path="url(#clip0_9103_7793)">
<path d="M27.6377 7.57715C27.6377 8.12915 27.1897 8.57715 26.6377 8.57715H11.7357C11.1837 8.57715 10.7357 8.12915 10.7357 7.57715V6.55615H8.05469V33.5502H30.3177V6.55715H27.6367V7.57815L27.6377 7.57715Z" fill="white"/>
<path d="M11.7363 8.57713H26.6383C27.1903 8.57713 27.6383 8.12914 27.6383 7.57714V6.96313H10.7363V7.57714C10.7363 8.12914 11.1843 8.57713 11.7363 8.57713Z" fill="#A3ADB7"/>
<path d="M26.6402 4.42012H22.0302C22.0402 4.32012 22.0602 4.22012 22.0602 4.11012C22.0602 3.74012 21.9902 3.38012 21.8502 3.05012C21.4402 2.07012 20.4602 1.37012 19.3202 1.37012C18.1802 1.37012 17.2102 2.07012 16.8002 3.05012C16.6602 3.38012 16.5802 3.74012 16.5802 4.11012C16.5802 4.22012 16.6002 4.32012 16.6102 4.42012H11.7402C11.1802 4.42012 10.7402 4.87012 10.7402 5.42012V6.96012H27.6402V5.42012C27.6402 4.87012 27.1902 4.42012 26.6402 4.42012ZM19.3202 3.15012C19.8602 3.15012 20.2902 3.58012 20.2902 4.11012C20.2902 4.64012 19.8602 5.08012 19.3202 5.08012C18.7902 5.08012 18.3602 4.64012 18.3602 4.11012C18.3602 3.58012 18.7902 3.15012 19.3202 3.15012Z" fill="#D0D5DA"/>
<path d="M31.104 3.0542H21.851C21.987 3.3792 22.063 3.7362 22.063 4.1112C22.063 4.2172 22.043 4.3182 22.032 4.4212H26.638C27.19 4.4212 27.638 4.8692 27.638 5.4212V6.5572H30.319V33.5512H8.05502V6.5572H10.736V5.4212C10.736 4.8692 11.184 4.4212 11.736 4.4212H16.615C16.603 4.3182 16.584 4.2172 16.584 4.1112C16.584 3.7362 16.66 3.3792 16.796 3.0542H7.26902C6.10802 3.0542 5.16602 3.9962 5.16602 5.1572V34.9512C5.16602 36.1132 6.10802 37.0542 7.26902 37.0542H31.104C32.265 37.0542 33.207 36.1122 33.207 34.9512V5.1572C33.207 3.9952 32.265 3.0542 31.104 3.0542Z" fill="#FFC33A"/>
<path d="M19.3234 3.14624C18.7904 3.14624 18.3584 3.57824 18.3584 4.11124C18.3584 4.64424 18.7904 5.07624 19.3234 5.07624C19.8564 5.07624 20.2884 4.64424 20.2884 4.11124C20.2884 3.57824 19.8564 3.14624 19.3234 3.14624Z" fill="#FFC33A"/>
</g>
<defs>
<clipPath id="clip0_9103_7793">
<rect width="40" height="40" fill="white"/>
</clipPath>
</defs>
</svg>
