<svg viewBox="0 0 60 60" fill="none" xmlns="http://www.w3.org/2000/svg">
<g clip-path="url(#clip0_4819_6266)">
<path d="M27.933 4.15817C28.7816 2.45064 31.2175 2.45064 32.0661 4.15818L38.2797 16.6607C39.1231 18.3579 40.7463 19.5325 42.6221 19.8032L56.4992 21.8056C58.397 22.0795 59.1524 24.4142 57.7747 25.7478L47.7681 35.434C46.3969 36.7612 45.7708 38.6806 46.0956 40.5611L48.4596 54.2483C48.7848 56.1313 46.8115 57.5711 45.1175 56.6868L32.6695 50.188C30.9967 49.3146 29.0024 49.3146 27.3295 50.188L14.8815 56.6868C13.1876 57.5711 11.2143 56.1313 11.5395 54.2483L13.9035 40.5611C14.2283 38.6806 13.6022 36.7612 12.231 35.434L2.22444 25.7478C0.846705 24.4142 1.60207 22.0795 3.49988 21.8056L17.377 19.8032C19.2528 19.5325 20.876 18.3579 21.7194 16.6607L27.933 4.15817Z" fill="#FFE672"/>
<path d="M35.7695 31.4482C36.4585 31.4482 37.0176 32.0064 37.0176 32.6953C37.0176 34.4966 36.2604 36.2096 34.9375 37.4609C33.6171 38.7099 31.84 39.4003 30.001 39.4004C28.162 39.4004 26.3849 38.7098 25.0645 37.4609C23.7416 36.2096 22.9844 34.4966 22.9844 32.6953C22.9844 32.0064 23.5425 31.4482 24.2314 31.4482C24.9204 31.4482 25.4785 32.0064 25.4785 32.6953C25.4785 33.7888 25.9373 34.8529 26.7783 35.6484C27.6217 36.4461 28.7801 36.9053 30.001 36.9053C31.2216 36.9052 32.3794 36.446 33.2227 35.6484C34.0637 34.8529 34.5225 33.7888 34.5225 32.6953C34.5225 32.0065 35.0808 31.4484 35.7695 31.4482Z" fill="#FFAA00"/>
<path d="M26.6855 26.5391C27.6543 26.5391 28.4403 27.3243 28.4404 28.293C28.4404 29.2618 27.6543 30.0469 26.6855 30.0469C25.7169 30.0467 24.9316 29.2617 24.9316 28.293C24.9317 27.3243 25.7169 26.5392 26.6855 26.5391Z" fill="#FFAA00"/>
<path d="M33.3066 26.5391C34.2754 26.5391 35.0614 27.3243 35.0615 28.293C35.0615 29.2618 34.2754 30.0469 33.3066 30.0469C32.338 30.0467 31.5527 29.2617 31.5527 28.293C31.5528 27.3243 32.338 26.5392 33.3066 26.5391Z" fill="#FFAA00"/>
</g>
<defs>
<clipPath id="clip0_4819_6266">
<rect width="60" height="60" fill="white"/>
</clipPath>
</defs>
</svg>
