<svg width="60" height="60" viewBox="0 0 60 60" fill="none" xmlns="http://www.w3.org/2000/svg">
<g clip-path="url(#clip0_4970_40282)">
<path d="M27.933 4.15817C28.7816 2.45064 31.2175 2.45064 32.0661 4.15818L38.2797 16.6607C39.1231 18.3579 40.7463 19.5325 42.6221 19.8032L56.4992 21.8056C58.397 22.0795 59.1524 24.4142 57.7747 25.7478L47.7681 35.434C46.3969 36.7612 45.7708 38.6806 46.0956 40.5611L48.4596 54.2483C48.7848 56.1313 46.8115 57.5711 45.1176 56.6868L32.6696 50.188C30.9967 49.3146 29.0024 49.3146 27.3295 50.188L14.8815 56.6868C13.1876 57.5711 11.2143 56.1313 11.5395 54.2483L13.9035 40.5611C14.2283 38.6806 13.6022 36.7612 12.231 35.434L2.22444 25.7478C0.846706 24.4142 1.60207 22.0795 3.49988 21.8056L17.377 19.8032C19.2528 19.5325 20.876 18.3579 21.7194 16.6607L27.933 4.15817Z" fill="#F4F4F5"/>
<path d="M30 49.5332C29.0833 49.5332 28.1665 49.7509 27.3301 50.1875L14.8818 56.6865C13.1879 57.5709 11.2148 56.131 11.54 54.248L13.9033 40.5615C14.2281 38.681 13.6026 36.7609 12.2314 35.4336L2.22461 25.748C0.84688 24.4144 1.6022 22.0795 3.5 21.8057L17.377 19.8027C19.2526 19.5321 20.8762 18.3581 21.7197 16.6611L27.9336 4.1582C28.358 3.30443 29.1788 2.87782 30 2.87793V49.5332Z" fill="#FFE672"/>
</g>
<defs>
<clipPath id="clip0_4970_40282">
<rect width="60" height="60" fill="white"/>
</clipPath>
</defs>
</svg>
