<svg viewBox="0 0 60 60" fill="none" xmlns="http://www.w3.org/2000/svg">
<g clip-path="url(#clip0_4819_6268)">
<path d="M27.933 4.15817C28.7816 2.45064 31.2175 2.45064 32.0661 4.15818L38.2797 16.6607C39.1231 18.3579 40.7463 19.5325 42.6221 19.8032L56.4992 21.8056C58.397 22.0795 59.1524 24.4142 57.7747 25.7478L47.7681 35.434C46.3969 36.7612 45.7708 38.6806 46.0956 40.5611L48.4596 54.2483C48.7848 56.1313 46.8115 57.5711 45.1176 56.6868L32.6696 50.188C30.9967 49.3146 29.0024 49.3146 27.3295 50.188L14.8815 56.6868C13.1876 57.5711 11.2143 56.1313 11.5395 54.2483L13.9035 40.5611C14.2283 38.6806 13.6022 36.7612 12.231 35.434L2.22444 25.7478C0.846706 24.4142 1.60207 22.0795 3.49988 21.8056L17.377 19.8032C19.2528 19.5325 20.876 18.3579 21.7194 16.6607L27.933 4.15817Z" fill="currentColor"/>
</g>
<defs>
<clipPath id="clip0_4819_6268">
<rect width="60" height="60" fill="white"/>
</clipPath>
</defs>
</svg>
