<svg viewBox="0 0 28 28" fill="none" xmlns="http://www.w3.org/2000/svg">
<g clip-path="url(#clip0_8864_7014)">
<path d="M23.6323 1.75H4.4544C3.858 1.75 3.375 2.233 3.375 2.8294V25.1706C3.375 25.767 3.858 26.25 4.4544 26.25H23.6323C24.2287 26.25 24.7117 25.767 24.7117 25.1706V2.8294C24.7117 2.233 24.2287 1.75 23.6323 1.75ZM7.0276 24.3712C7.0276 24.5903 6.8505 24.7674 6.6314 24.7674H5.4085C5.1894 24.7674 5.0123 24.5903 5.0123 24.3712V23.1476C5.0123 22.9285 5.1894 22.7514 5.4085 22.7514H6.6314C6.8505 22.7514 7.0276 22.9285 7.0276 23.1476V24.3712ZM7.0276 20.4771C7.0276 20.6962 6.8505 20.8733 6.6314 20.8733H5.4085C5.1894 20.8733 5.0123 20.6962 5.0123 20.4771V19.2535C5.0123 19.0344 5.1894 18.8573 5.4085 18.8573H6.6314C6.8505 18.8573 7.0276 19.0344 7.0276 19.2535V20.4771ZM7.0276 16.583C7.0276 16.8021 6.8505 16.9792 6.6314 16.9792H5.4085C5.1894 16.9792 5.0123 16.8021 5.0123 16.583V15.3594C5.0123 15.1403 5.1894 14.9632 5.4085 14.9632H6.6314C6.8505 14.9632 7.0276 15.1403 7.0276 15.3594V16.583ZM7.0276 12.6889C7.0276 12.908 6.8505 13.0851 6.6314 13.0851H5.4085C5.1894 13.0851 5.0123 12.908 5.0123 12.6889V11.4653C5.0123 11.2462 5.1894 11.0691 5.4085 11.0691H6.6314C6.8505 11.0691 7.0276 11.2462 7.0276 11.4653V12.6889ZM7.0276 8.7948C7.0276 9.0139 6.8505 9.191 6.6314 9.191H5.4085C5.1894 9.191 5.0123 9.0139 5.0123 8.7948V7.5712C5.0123 7.3521 5.1894 7.175 5.4085 7.175H6.6314C6.8505 7.175 7.0276 7.3521 7.0276 7.5712V8.7948ZM7.0276 4.9007C7.0276 5.1198 6.8505 5.2969 6.6314 5.2969H5.4085C5.1894 5.2969 5.0123 5.1198 5.0123 4.9007V3.6771C5.0123 3.458 5.1894 3.2809 5.4085 3.2809H6.6314C6.8505 3.2809 7.0276 3.458 7.0276 3.6771V4.9007ZM23.3488 24.3712C23.3488 24.5903 23.1717 24.7674 22.9526 24.7674H21.7297C21.5106 24.7674 21.3335 24.5903 21.3335 24.3712V23.1476C21.3335 22.9285 21.5106 22.7514 21.7297 22.7514H22.9526C23.1717 22.7514 23.3488 22.9285 23.3488 23.1476V24.3712ZM23.3488 20.4771C23.3488 20.6962 23.1717 20.8733 22.9526 20.8733H21.7297C21.5106 20.8733 21.3335 20.6962 21.3335 20.4771V19.2535C21.3335 19.0344 21.5106 18.8573 21.7297 18.8573H22.9526C23.1717 18.8573 23.3488 19.0344 23.3488 19.2535V20.4771ZM23.3488 16.583C23.3488 16.8021 23.1717 16.9792 22.9526 16.9792H21.7297C21.5106 16.9792 21.3335 16.8021 21.3335 16.583V15.3594C21.3335 15.1403 21.5106 14.9632 21.7297 14.9632H22.9526C23.1717 14.9632 23.3488 15.1403 23.3488 15.3594V16.583ZM23.3488 12.6889C23.3488 12.908 23.1717 13.0851 22.9526 13.0851H21.7297C21.5106 13.0851 21.3335 12.908 21.3335 12.6889V11.4653C21.3335 11.2462 21.5106 11.0691 21.7297 11.0691H22.9526C23.1717 11.0691 23.3488 11.2462 23.3488 11.4653V12.6889ZM23.3488 8.7948C23.3488 9.0139 23.1717 9.191 22.9526 9.191H21.7297C21.5106 9.191 21.3335 9.0139 21.3335 8.7948V7.5712C21.3335 7.3521 21.5106 7.175 21.7297 7.175H22.9526C23.1717 7.175 23.3488 7.3521 23.3488 7.5712V8.7948ZM23.3488 4.9007C23.3488 5.1198 23.1717 5.2969 22.9526 5.2969H21.7297C21.5106 5.2969 21.3335 5.1198 21.3335 4.9007V3.6771C21.3335 3.458 21.5106 3.2809 21.7297 3.2809H22.9526C23.1717 3.2809 23.3488 3.458 23.3488 3.6771V4.9007Z" fill="#595959"/>
<path d="M18.4238 3.28101H9.83549C9.33523 3.28101 8.92969 3.68655 8.92969 4.18681V12.1794C8.92969 12.6797 9.33523 13.0852 9.83549 13.0852H18.4238C18.924 13.0852 19.3296 12.6797 19.3296 12.1794V4.18681C19.3296 3.68655 18.924 3.28101 18.4238 3.28101Z" fill="#D5D5D5"/>
<path d="M18.4238 14.7344H9.83549C9.33523 14.7344 8.92969 15.1399 8.92969 15.6402V23.6328C8.92969 24.133 9.33523 24.5386 9.83549 24.5386H18.4238C18.924 24.5386 19.3296 24.133 19.3296 23.6328V15.6402C19.3296 15.1399 18.924 14.7344 18.4238 14.7344Z" fill="#D5D5D5"/>
</g>
<defs>
<clipPath id="clip0_8864_7014">
<rect width="28" height="28" fill="white"/>
</clipPath>
</defs>
</svg>
